# xmcd
#
# Track frame offsets:
#  150
#  10085
#  27999
#  40621
#  57704
#  71848
#  86653
#  97653
#  112159
#  125924
#  136349
#  147677
#  157832
#  173229
#  191547
#
# Disc length: 2670 seconds
#
# Revision: 0
# Processed by: cddbd v1.5.1PL2 Copyright (c) Steve Scherf et al.
# Submitted via: Collectorz.com_Music_Collector 6.9
#
DISCID=d50a6c0f
DTITLE=Ted En Helen - Close Together
DYEAR=2003
DGENRE=
TTITLE0=Have you ever been lonely
TTITLE1=I believe in you
TTITLE2=You really had me going
TTITLE3=Chiseled in stone
TTITLE4=We're gonna hold on
TTITLE5=I've had a beautifull time
TTITLE6=Just someone I used to knoe
TTITLE7=Goodhaerted woman
TTITLE8=Coat of many colors
TTITLE9=Who isn't me tonight
TTITLE10=Walking, talking, cryin' barely
TTITLE11=Three cigarettes in an ashtray
TTITLE12=Yard sale
TTITLE13=I guess you had tobe there
TTITLE14=Love's gonna live here
EXTD=
EXTT0=
EXTT1=
EXTT2=
EXTT3=
EXTT4=
EXTT5=
EXTT6=
EXTT7=
EXTT8=
EXTT9=
EXTT10=
EXTT11=
EXTT12=
EXTT13=
EXTT14=
PLAYORDER=
